<?xml version="1.0" encoding="UTF-8" standalone="no"?>
<!DOCTYPE svg PUBLIC "-//W3C//DTD SVG 1.1//EN"
 "http://www.w3.org/Graphics/SVG/1.1/DTD/svg11.dtd">
<!-- Generated by graphviz version 2.40.1 (20161225.0304)
 -->
<!-- Title: labels Pages: 1 -->
<svg width="534pt" height="502pt"
 viewBox="0.00 0.00 534.00 502.00" xmlns="http://www.w3.org/2000/svg" xmlns:xlink="http://www.w3.org/1999/xlink">
<g id="graph0" class="graph" transform="scale(1 1) rotate(0) translate(4 498)">
<title>labels</title>
<polygon fill="#ffffff" stroke="transparent" points="-4,4 -4,-498 530,-498 530,4 -4,4"/>
<!-- labels -->
<g id="node1" class="node">
<title>labels</title>
<polygon fill="#efefef" stroke="transparent" points="69,-135.5 69,-170.5 257,-170.5 257,-135.5 69,-135.5"/>
<polygon fill="none" stroke="#000000" points="69,-135.5 69,-170.5 257,-170.5 257,-135.5 69,-135.5"/>
<text text-anchor="start" x="75.7125" y="-148.3" font-family="Arial Bold" font-size="18.00" fill="#000000">labels</text>
<text text-anchor="start" x="122.7195" y="-148.3" font-family="Arial" font-size="14.00" fill="#000000">    </text>
<text text-anchor="start" x="156.9243" y="-148.3" font-family="Arial" font-size="14.00" fill="#666666">[BASE TABLE]</text>
<polygon fill="none" stroke="#000000" points="69,-105.5 69,-135.5 257,-135.5 257,-105.5 69,-105.5"/>
<text text-anchor="start" x="76" y="-116.9" font-family="Arial" font-size="14.00" fill="#000000">id </text>
<text text-anchor="start" x="90.7798" y="-116.9" font-family="Arial" font-size="14.00" fill="#666666">[bigint(20) unsigned]</text>
<polygon fill="none" stroke="#000000" points="69,-75.5 69,-105.5 257,-105.5 257,-75.5 69,-75.5"/>
<text text-anchor="start" x="76" y="-86.9" font-family="Arial" font-size="14.00" fill="#000000">name </text>
<text text-anchor="start" x="114.899" y="-86.9" font-family="Arial" font-size="14.00" fill="#666666">[varchar(20)]</text>
<polygon fill="none" stroke="#000000" points="69,-45.5 69,-75.5 257,-75.5 257,-45.5 69,-45.5"/>
<text text-anchor="start" x="76" y="-56.9" font-family="Arial" font-size="14.00" fill="#000000">created_at </text>
<text text-anchor="start" x="146.028" y="-56.9" font-family="Arial" font-size="14.00" fill="#666666">[timestamp]</text>
<polygon fill="none" stroke="#000000" stroke-width="3" points="67.5,-44.5 67.5,-172.5 258.5,-172.5 258.5,-44.5 67.5,-44.5"/>
</g>
<!-- tasks_labels -->
<g id="node2" class="node">
<title>tasks_labels</title>
<polygon fill="#efefef" stroke="transparent" points="43,-415.5 43,-450.5 283,-450.5 283,-415.5 43,-415.5"/>
<polygon fill="none" stroke="#000000" points="43,-415.5 43,-450.5 283,-450.5 283,-415.5 43,-415.5"/>
<text text-anchor="start" x="49.7052" y="-428.3" font-family="Arial Bold" font-size="18.00" fill="#000000">tasks_labels</text>
<text text-anchor="start" x="148.7268" y="-428.3" font-family="Arial" font-size="14.00" fill="#000000">    </text>
<text text-anchor="start" x="182.9316" y="-428.3" font-family="Arial" font-size="14.00" fill="#666666">[BASE TABLE]</text>
<polygon fill="none" stroke="#000000" points="43,-385.5 43,-415.5 283,-415.5 283,-385.5 43,-385.5"/>
<text text-anchor="start" x="50" y="-396.9" font-family="Arial" font-size="14.00" fill="#000000">id    </text>
<text text-anchor="start" x="95.094" y="-396.9" font-family="Arial" font-size="14.00" fill="#666666">[bigint(20) unsigned]</text>
<polygon fill="none" stroke="#000000" points="43,-355.5 43,-385.5 283,-385.5 283,-355.5 43,-355.5"/>
<text text-anchor="start" x="50" y="-366.9" font-family="Arial" font-size="14.00" fill="#000000">task_id    </text>
<text text-anchor="start" x="128.5498" y="-366.9" font-family="Arial" font-size="14.00" fill="#666666">[bigint(20) unsigned]</text>
<polygon fill="none" stroke="#000000" points="43,-325.5 43,-355.5 283,-355.5 283,-325.5 43,-325.5"/>
<text text-anchor="start" x="50" y="-336.9" font-family="Arial" font-size="14.00" fill="#000000">label_id    </text>
<text text-anchor="start" x="132.4376" y="-336.9" font-family="Arial" font-size="14.00" fill="#666666">[bigint(20) unsigned]</text>
<polygon fill="none" stroke="#000000" points="43,-295.5 43,-325.5 283,-325.5 283,-295.5 43,-295.5"/>
<text text-anchor="start" x="50" y="-306.9" font-family="Arial" font-size="14.00" fill="#000000">created_at    </text>
<text text-anchor="start" x="150.3422" y="-306.9" font-family="Arial" font-size="14.00" fill="#666666">[timestamp]</text>
</g>
<!-- tasks_labels&#45;&gt;labels -->
<g id="edge1" class="edge">
<title>tasks_labels:label_id&#45;&gt;labels:id</title>
<path fill="none" stroke="#000000" d="M293.1877,-339.6591C379.4847,-324.8888 351.9007,-120.5 257,-120.5"/>
<polygon fill="#000000" stroke="#000000" points="292.9661,-339.6773 282.6298,-336.0153 287.9831,-340.0886 283,-340.5 283,-340.5 283,-340.5 287.9831,-340.0886 283.3702,-344.9847 292.9661,-339.6773 292.9661,-339.6773"/>
<text text-anchor="start" x="290.277" y="-350.5" font-family="Arial" font-size="10.00" fill="#000000">FOREIGN KEY (label_id) REFERENCES labels (id)</text>
</g>
</g>
</svg>
