<?xml version="1.0" encoding="UTF-8" standalone="no"?>
<!DOCTYPE svg PUBLIC "-//W3C//DTD SVG 1.1//EN"
 "http://www.w3.org/Graphics/SVG/1.1/DTD/svg11.dtd">
<!-- Generated by graphviz version 2.40.1 (20161225.0304)
 -->
<!-- Title: myapp_draft Pages: 1 -->
<svg width="906pt" height="1103pt"
 viewBox="0.00 0.00 906.00 1103.00" xmlns="http://www.w3.org/2000/svg" xmlns:xlink="http://www.w3.org/1999/xlink">
<g id="graph0" class="graph" transform="scale(1 1) rotate(0) translate(4 1099)">
<title>myapp_draft</title>
<polygon fill="#ffffff" stroke="transparent" points="-4,4 -4,-1099 902,-1099 902,4 -4,4"/>
<!-- labels -->
<g id="node1" class="node">
<title>labels</title>
<polygon fill="#efefef" stroke="transparent" points="115,-634.5 115,-669.5 303,-669.5 303,-634.5 115,-634.5"/>
<polygon fill="none" stroke="#000000" points="115,-634.5 115,-669.5 303,-669.5 303,-634.5 115,-634.5"/>
<text text-anchor="start" x="121.7125" y="-647.3" font-family="Arial Bold" font-size="18.00" fill="#000000">labels</text>
<text text-anchor="start" x="168.7195" y="-647.3" font-family="Arial" font-size="14.00" fill="#000000">    </text>
<text text-anchor="start" x="202.9243" y="-647.3" font-family="Arial" font-size="14.00" fill="#666666">[BASE TABLE]</text>
<polygon fill="none" stroke="#000000" points="115,-604.5 115,-634.5 303,-634.5 303,-604.5 115,-604.5"/>
<text text-anchor="start" x="122" y="-615.9" font-family="Arial" font-size="14.00" fill="#000000">id    </text>
<text text-anchor="start" x="167.094" y="-615.9" font-family="Arial" font-size="14.00" fill="#666666">[bigint(20) unsigned]</text>
<polygon fill="none" stroke="#000000" points="115,-574.5 115,-604.5 303,-604.5 303,-574.5 115,-574.5"/>
<text text-anchor="start" x="122" y="-585.9" font-family="Arial" font-size="14.00" fill="#000000">name    </text>
<text text-anchor="start" x="191.2132" y="-585.9" font-family="Arial" font-size="14.00" fill="#666666">[varchar(20)]</text>
<polygon fill="none" stroke="#000000" points="115,-544.5 115,-574.5 303,-574.5 303,-544.5 115,-544.5"/>
<text text-anchor="start" x="122" y="-555.9" font-family="Arial" font-size="14.00" fill="#000000">created_at    </text>
<text text-anchor="start" x="222.3422" y="-555.9" font-family="Arial" font-size="14.00" fill="#666666">[timestamp]</text>
</g>
<!-- site_settings -->
<g id="node2" class="node">
<title>site_settings</title>
<polygon fill="#efefef" stroke="transparent" points="587,-1016.5 587,-1051.5 855,-1051.5 855,-1016.5 587,-1016.5"/>
<polygon fill="none" stroke="#000000" points="587,-1016.5 587,-1051.5 855,-1051.5 855,-1016.5 587,-1016.5"/>
<text text-anchor="start" x="607.203" y="-1029.3" font-family="Arial Bold" font-size="18.00" fill="#000000">site_settings</text>
<text text-anchor="start" x="707.229" y="-1029.3" font-family="Arial" font-size="14.00" fill="#000000">    </text>
<text text-anchor="start" x="741.4338" y="-1029.3" font-family="Arial" font-size="14.00" fill="#666666">[BASE TABLE]</text>
<polygon fill="none" stroke="#000000" points="587,-986.5 587,-1016.5 855,-1016.5 855,-986.5 587,-986.5"/>
<text text-anchor="start" x="594" y="-997.9" font-family="Arial" font-size="14.00" fill="#000000">id    </text>
<text text-anchor="start" x="639.094" y="-997.9" font-family="Arial" font-size="14.00" fill="#666666">[int(11) unsigned]</text>
<polygon fill="none" stroke="#000000" points="587,-956.5 587,-986.5 855,-986.5 855,-956.5 587,-956.5"/>
<text text-anchor="start" x="593.8163" y="-967.9" font-family="Arial" font-size="14.00" fill="#000000">is_maintenance    </text>
<text text-anchor="start" x="726.0463" y="-967.9" font-family="Arial" font-size="14.00" fill="#666666">[tinyint(3) unsigned]</text>
<polygon fill="none" stroke="#000000" points="587,-926.5 587,-956.5 855,-956.5 855,-926.5 587,-926.5"/>
<text text-anchor="start" x="594" y="-937.9" font-family="Arial" font-size="14.00" fill="#000000">created_at    </text>
<text text-anchor="start" x="694.3422" y="-937.9" font-family="Arial" font-size="14.00" fill="#666666">[timestamp]</text>
<polygon fill="none" stroke="#000000" points="587,-896.5 587,-926.5 855,-926.5 855,-896.5 587,-896.5"/>
<text text-anchor="start" x="594" y="-907.9" font-family="Arial" font-size="14.00" fill="#000000">updated_at    </text>
<text text-anchor="start" x="698.2468" y="-907.9" font-family="Arial" font-size="14.00" fill="#666666">[timestamp]</text>
</g>
<!-- tasks -->
<g id="node3" class="node">
<title>tasks</title>
<polygon fill="#efefef" stroke="transparent" points="407,-739.5 407,-774.5 627,-774.5 627,-739.5 407,-739.5"/>
<polygon fill="none" stroke="#000000" points="407,-739.5 407,-774.5 627,-774.5 627,-739.5 407,-739.5"/>
<text text-anchor="start" x="432.2118" y="-752.3" font-family="Arial Bold" font-size="18.00" fill="#000000">tasks</text>
<text text-anchor="start" x="474.2202" y="-752.3" font-family="Arial" font-size="14.00" fill="#000000">    </text>
<text text-anchor="start" x="508.425" y="-752.3" font-family="Arial" font-size="14.00" fill="#666666">[BASE TABLE]</text>
<polygon fill="none" stroke="#000000" points="407,-709.5 407,-739.5 627,-739.5 627,-709.5 407,-709.5"/>
<text text-anchor="start" x="414" y="-720.9" font-family="Arial" font-size="14.00" fill="#000000">id    </text>
<text text-anchor="start" x="459.094" y="-720.9" font-family="Arial" font-size="14.00" fill="#666666">[bigint(20) unsigned]</text>
<polygon fill="none" stroke="#000000" points="407,-679.5 407,-709.5 627,-709.5 627,-679.5 407,-679.5"/>
<text text-anchor="start" x="414" y="-690.9" font-family="Arial" font-size="14.00" fill="#000000">name    </text>
<text text-anchor="start" x="483.2132" y="-690.9" font-family="Arial" font-size="14.00" fill="#666666">[varchar(50)]</text>
<polygon fill="none" stroke="#000000" points="407,-649.5 407,-679.5 627,-679.5 627,-649.5 407,-649.5"/>
<text text-anchor="start" x="414" y="-660.9" font-family="Arial" font-size="14.00" fill="#000000">description    </text>
<text text-anchor="start" x="515.8822" y="-660.9" font-family="Arial" font-size="14.00" fill="#666666">[varchar(500)]</text>
<polygon fill="none" stroke="#000000" points="407,-619.5 407,-649.5 627,-649.5 627,-619.5 407,-619.5"/>
<text text-anchor="start" x="414" y="-630.9" font-family="Arial" font-size="14.00" fill="#000000">status    </text>
<text text-anchor="start" x="485.5512" y="-630.9" font-family="Arial" font-size="14.00" fill="#666666">[tinyint(3) unsigned]</text>
<polygon fill="none" stroke="#000000" points="407,-589.5 407,-619.5 627,-619.5 627,-589.5 407,-589.5"/>
<text text-anchor="start" x="414" y="-600.9" font-family="Arial" font-size="14.00" fill="#000000">priority    </text>
<text text-anchor="start" x="490.195" y="-600.9" font-family="Arial" font-size="14.00" fill="#666666">[tinyint(3) unsigned]</text>
<polygon fill="none" stroke="#000000" points="407,-559.5 407,-589.5 627,-589.5 627,-559.5 407,-559.5"/>
<text text-anchor="start" x="413.5428" y="-570.9" font-family="Arial" font-size="14.00" fill="#000000">user_id    </text>
<text text-anchor="start" x="493.6452" y="-570.9" font-family="Arial" font-size="14.00" fill="#666666">[bigint(20) unsigned]</text>
<polygon fill="none" stroke="#000000" points="407,-529.5 407,-559.5 627,-559.5 627,-529.5 407,-529.5"/>
<text text-anchor="start" x="414" y="-540.9" font-family="Arial" font-size="14.00" fill="#000000">due_date_at    </text>
<text text-anchor="start" x="526.0294" y="-540.9" font-family="Arial" font-size="14.00" fill="#666666">[timestamp]</text>
<polygon fill="none" stroke="#000000" points="407,-499.5 407,-529.5 627,-529.5 627,-499.5 407,-499.5"/>
<text text-anchor="start" x="414" y="-510.9" font-family="Arial" font-size="14.00" fill="#000000">created_at    </text>
<text text-anchor="start" x="514.3422" y="-510.9" font-family="Arial" font-size="14.00" fill="#666666">[timestamp]</text>
<polygon fill="none" stroke="#000000" points="407,-469.5 407,-499.5 627,-499.5 627,-469.5 407,-469.5"/>
<text text-anchor="start" x="414" y="-480.9" font-family="Arial" font-size="14.00" fill="#000000">updated_at    </text>
<text text-anchor="start" x="518.2468" y="-480.9" font-family="Arial" font-size="14.00" fill="#666666">[timestamp]</text>
<polygon fill="none" stroke="#000000" points="407,-439.5 407,-469.5 627,-469.5 627,-439.5 407,-439.5"/>
<text text-anchor="start" x="414" y="-450.9" font-family="Arial" font-size="14.00" fill="#000000">deleted_at    </text>
<text text-anchor="start" x="513.5708" y="-450.9" font-family="Arial" font-size="14.00" fill="#666666">[timestamp]</text>
</g>
<!-- users -->
<g id="node5" class="node">
<title>users</title>
<polygon fill="#efefef" stroke="transparent" points="402,-282.5 402,-317.5 632,-317.5 632,-282.5 402,-282.5"/>
<polygon fill="none" stroke="#000000" points="402,-282.5 402,-317.5 632,-317.5 632,-282.5 402,-282.5"/>
<text text-anchor="start" x="431.2137" y="-295.3" font-family="Arial Bold" font-size="18.00" fill="#000000">users</text>
<text text-anchor="start" x="475.2183" y="-295.3" font-family="Arial" font-size="14.00" fill="#000000">    </text>
<text text-anchor="start" x="509.4231" y="-295.3" font-family="Arial" font-size="14.00" fill="#666666">[BASE TABLE]</text>
<polygon fill="none" stroke="#000000" points="402,-252.5 402,-282.5 632,-282.5 632,-252.5 402,-252.5"/>
<text text-anchor="start" x="409" y="-263.9" font-family="Arial" font-size="14.00" fill="#000000">id    </text>
<text text-anchor="start" x="454.094" y="-263.9" font-family="Arial" font-size="14.00" fill="#666666">[bigint(20) unsigned]</text>
<polygon fill="none" stroke="#000000" points="402,-222.5 402,-252.5 632,-252.5 632,-222.5 402,-222.5"/>
<text text-anchor="start" x="409" y="-233.9" font-family="Arial" font-size="14.00" fill="#000000">username    </text>
<text text-anchor="start" x="505.439" y="-233.9" font-family="Arial" font-size="14.00" fill="#666666">[varchar(20)]</text>
<polygon fill="none" stroke="#000000" points="402,-192.5 402,-222.5 632,-222.5 632,-192.5 402,-192.5"/>
<text text-anchor="start" x="409" y="-203.9" font-family="Arial" font-size="14.00" fill="#000000">password    </text>
<text text-anchor="start" x="503.1024" y="-203.9" font-family="Arial" font-size="14.00" fill="#666666">[varchar(72)]</text>
<polygon fill="none" stroke="#000000" points="402,-162.5 402,-192.5 632,-192.5 632,-162.5 402,-162.5"/>
<text text-anchor="start" x="409" y="-173.9" font-family="Arial" font-size="14.00" fill="#000000">role    </text>
<text text-anchor="start" x="466.5372" y="-173.9" font-family="Arial" font-size="14.00" fill="#666666">[tinyint(3) unsigned]</text>
<polygon fill="none" stroke="#000000" points="402,-132.5 402,-162.5 632,-162.5 632,-132.5 402,-132.5"/>
<text text-anchor="start" x="408.8738" y="-143.9" font-family="Arial" font-size="14.00" fill="#000000">last_logged_in_at    </text>
<text text-anchor="start" x="552.7882" y="-143.9" font-family="Arial" font-size="14.00" fill="#666666">[timestamp]</text>
<polygon fill="none" stroke="#000000" points="402,-102.5 402,-132.5 632,-132.5 632,-102.5 402,-102.5"/>
<text text-anchor="start" x="409" y="-113.9" font-family="Arial" font-size="14.00" fill="#000000">created_at    </text>
<text text-anchor="start" x="509.3422" y="-113.9" font-family="Arial" font-size="14.00" fill="#666666">[timestamp]</text>
<polygon fill="none" stroke="#000000" points="402,-72.5 402,-102.5 632,-102.5 632,-72.5 402,-72.5"/>
<text text-anchor="start" x="409" y="-83.9" font-family="Arial" font-size="14.00" fill="#000000">updated_at    </text>
<text text-anchor="start" x="513.2468" y="-83.9" font-family="Arial" font-size="14.00" fill="#666666">[timestamp]</text>
<polygon fill="none" stroke="#000000" points="402,-42.5 402,-72.5 632,-72.5 632,-42.5 402,-42.5"/>
<text text-anchor="start" x="409" y="-53.9" font-family="Arial" font-size="14.00" fill="#000000">deleted_at    </text>
<text text-anchor="start" x="508.5708" y="-53.9" font-family="Arial" font-size="14.00" fill="#666666">[timestamp]</text>
</g>
<!-- tasks&#45;&gt;users -->
<g id="edge1" class="edge">
<title>tasks:user_id&#45;&gt;users:id</title>
<path fill="none" stroke="#000000" d="M637.1402,-573.9163C763.6252,-559.1081 764.9977,-267.5 632,-267.5"/>
<polygon fill="#000000" stroke="#000000" points="636.9835,-573.9252 626.7414,-570.0074 631.9917,-574.2126 627,-574.5 627,-574.5 627,-574.5 631.9917,-574.2126 627.2586,-578.9926 636.9835,-573.9252 636.9835,-573.9252"/>
<text text-anchor="start" x="633.945" y="-584.5" font-family="Arial" font-size="10.00" fill="#000000">FOREIGN KEY (user_id) REFERENCES users (id)</text>
</g>
<!-- tasks_labels -->
<g id="node4" class="node">
<title>tasks_labels</title>
<polygon fill="#efefef" stroke="transparent" points="243,-1016.5 243,-1051.5 483,-1051.5 483,-1016.5 243,-1016.5"/>
<polygon fill="none" stroke="#000000" points="243,-1016.5 243,-1051.5 483,-1051.5 483,-1016.5 243,-1016.5"/>
<text text-anchor="start" x="249.7052" y="-1029.3" font-family="Arial Bold" font-size="18.00" fill="#000000">tasks_labels</text>
<text text-anchor="start" x="348.7268" y="-1029.3" font-family="Arial" font-size="14.00" fill="#000000">    </text>
<text text-anchor="start" x="382.9316" y="-1029.3" font-family="Arial" font-size="14.00" fill="#666666">[BASE TABLE]</text>
<polygon fill="none" stroke="#000000" points="243,-986.5 243,-1016.5 483,-1016.5 483,-986.5 243,-986.5"/>
<text text-anchor="start" x="250" y="-997.9" font-family="Arial" font-size="14.00" fill="#000000">id    </text>
<text text-anchor="start" x="295.094" y="-997.9" font-family="Arial" font-size="14.00" fill="#666666">[bigint(20) unsigned]</text>
<polygon fill="none" stroke="#000000" points="243,-956.5 243,-986.5 483,-986.5 483,-956.5 243,-956.5"/>
<text text-anchor="start" x="250" y="-967.9" font-family="Arial" font-size="14.00" fill="#000000">task_id    </text>
<text text-anchor="start" x="328.5498" y="-967.9" font-family="Arial" font-size="14.00" fill="#666666">[bigint(20) unsigned]</text>
<polygon fill="none" stroke="#000000" points="243,-926.5 243,-956.5 483,-956.5 483,-926.5 243,-926.5"/>
<text text-anchor="start" x="250" y="-937.9" font-family="Arial" font-size="14.00" fill="#000000">label_id    </text>
<text text-anchor="start" x="332.4376" y="-937.9" font-family="Arial" font-size="14.00" fill="#666666">[bigint(20) unsigned]</text>
<polygon fill="none" stroke="#000000" points="243,-896.5 243,-926.5 483,-926.5 483,-896.5 243,-896.5"/>
<text text-anchor="start" x="250" y="-907.9" font-family="Arial" font-size="14.00" fill="#000000">created_at    </text>
<text text-anchor="start" x="350.3422" y="-907.9" font-family="Arial" font-size="14.00" fill="#666666">[timestamp]</text>
</g>
<!-- tasks_labels&#45;&gt;labels -->
<g id="edge2" class="edge">
<title>tasks_labels:label_id&#45;&gt;labels:id</title>
<path fill="none" stroke="#000000" d="M232.8558,-940.8878C114.9372,-925.356 444.8782,-619.5 303,-619.5"/>
<polygon fill="#000000" stroke="#000000" points="233.0182,-940.8975 242.7289,-945.9918 238.0091,-941.1987 243,-941.5 243,-941.5 243,-941.5 238.0091,-941.1987 243.2711,-937.0082 233.0182,-940.8975 233.0182,-940.8975"/>
<text text-anchor="start" x="7.277" y="-951.5" font-family="Arial" font-size="10.00" fill="#000000">FOREIGN KEY (label_id) REFERENCES labels (id)</text>
</g>
<!-- tasks_labels&#45;&gt;tasks -->
<g id="edge3" class="edge">
<title>tasks_labels:task_id&#45;&gt;tasks:id</title>
<path fill="none" stroke="#000000" d="M493.3929,-970.3295C531.5957,-960.77 508.8532,-894.8532 483,-854 463.0134,-822.4172 426.9866,-849.5828 407,-818 384.7782,-782.8851 365.4444,-724.5 407,-724.5"/>
<polygon fill="#000000" stroke="#000000" points="492.9372,-970.3807 482.4963,-967.0283 487.9686,-970.9404 483,-971.5 483,-971.5 483,-971.5 487.9686,-970.9404 483.5037,-975.9717 492.9372,-970.3807 492.9372,-970.3807"/>
<text text-anchor="start" x="490.054" y="-981.5" font-family="Arial" font-size="10.00" fill="#000000">FOREIGN KEY (task_id) REFERENCES tasks (id)</text>
</g>
</g>
</svg>
