<?xml version="1.0" encoding="UTF-8" standalone="no"?>
<!DOCTYPE svg PUBLIC "-//W3C//DTD SVG 1.1//EN"
 "http://www.w3.org/Graphics/SVG/1.1/DTD/svg11.dtd">
<!-- Generated by graphviz version 2.40.1 (20161225.0304)
 -->
<!-- Title: tasks Pages: 1 -->
<svg width="528pt" height="1079pt"
 viewBox="0.00 0.00 528.00 1079.00" xmlns="http://www.w3.org/2000/svg" xmlns:xlink="http://www.w3.org/1999/xlink">
<g id="graph0" class="graph" transform="scale(1 1) rotate(0) translate(4 1075)">
<title>tasks</title>
<polygon fill="#ffffff" stroke="transparent" points="-4,4 -4,-1075 524,-1075 524,4 -4,4"/>
<!-- tasks -->
<g id="node1" class="node">
<title>tasks</title>
<polygon fill="#efefef" stroke="transparent" points="68,-712.5 68,-747.5 258,-747.5 258,-712.5 68,-712.5"/>
<polygon fill="none" stroke="#000000" points="68,-712.5 68,-747.5 258,-747.5 258,-712.5 68,-712.5"/>
<text text-anchor="start" x="78.2118" y="-725.3" font-family="Arial Bold" font-size="18.00" fill="#000000">tasks</text>
<text text-anchor="start" x="120.2202" y="-725.3" font-family="Arial" font-size="14.00" fill="#000000">    </text>
<text text-anchor="start" x="154.425" y="-725.3" font-family="Arial" font-size="14.00" fill="#666666">[BASE TABLE]</text>
<polygon fill="none" stroke="#000000" points="68,-682.5 68,-712.5 258,-712.5 258,-682.5 68,-682.5"/>
<text text-anchor="start" x="75" y="-693.9" font-family="Arial" font-size="14.00" fill="#000000">id </text>
<text text-anchor="start" x="89.7798" y="-693.9" font-family="Arial" font-size="14.00" fill="#666666">[bigint(20) unsigned]</text>
<polygon fill="none" stroke="#000000" points="68,-652.5 68,-682.5 258,-682.5 258,-652.5 68,-652.5"/>
<text text-anchor="start" x="75" y="-663.9" font-family="Arial" font-size="14.00" fill="#000000">name </text>
<text text-anchor="start" x="113.899" y="-663.9" font-family="Arial" font-size="14.00" fill="#666666">[varchar(50)]</text>
<polygon fill="none" stroke="#000000" points="68,-622.5 68,-652.5 258,-652.5 258,-622.5 68,-622.5"/>
<text text-anchor="start" x="75" y="-633.9" font-family="Arial" font-size="14.00" fill="#000000">description </text>
<text text-anchor="start" x="146.568" y="-633.9" font-family="Arial" font-size="14.00" fill="#666666">[varchar(500)]</text>
<polygon fill="none" stroke="#000000" points="68,-592.5 68,-622.5 258,-622.5 258,-592.5 68,-592.5"/>
<text text-anchor="start" x="75" y="-603.9" font-family="Arial" font-size="14.00" fill="#000000">status </text>
<text text-anchor="start" x="116.237" y="-603.9" font-family="Arial" font-size="14.00" fill="#666666">[tinyint(3) unsigned]</text>
<polygon fill="none" stroke="#000000" points="68,-562.5 68,-592.5 258,-592.5 258,-562.5 68,-562.5"/>
<text text-anchor="start" x="75" y="-573.9" font-family="Arial" font-size="14.00" fill="#000000">priority </text>
<text text-anchor="start" x="120.8808" y="-573.9" font-family="Arial" font-size="14.00" fill="#666666">[tinyint(3) unsigned]</text>
<polygon fill="none" stroke="#000000" points="68,-532.5 68,-562.5 258,-562.5 258,-532.5 68,-532.5"/>
<text text-anchor="start" x="74.6999" y="-543.9" font-family="Arial" font-size="14.00" fill="#000000">user_id </text>
<text text-anchor="start" x="124.4881" y="-543.9" font-family="Arial" font-size="14.00" fill="#666666">[bigint(20) unsigned]</text>
<polygon fill="none" stroke="#000000" points="68,-502.5 68,-532.5 258,-532.5 258,-502.5 68,-502.5"/>
<text text-anchor="start" x="75" y="-513.9" font-family="Arial" font-size="14.00" fill="#000000">due_date_at </text>
<text text-anchor="start" x="156.7152" y="-513.9" font-family="Arial" font-size="14.00" fill="#666666">[timestamp]</text>
<polygon fill="none" stroke="#000000" points="68,-472.5 68,-502.5 258,-502.5 258,-472.5 68,-472.5"/>
<text text-anchor="start" x="75" y="-483.9" font-family="Arial" font-size="14.00" fill="#000000">created_at </text>
<text text-anchor="start" x="145.028" y="-483.9" font-family="Arial" font-size="14.00" fill="#666666">[timestamp]</text>
<polygon fill="none" stroke="#000000" points="68,-442.5 68,-472.5 258,-472.5 258,-442.5 68,-442.5"/>
<text text-anchor="start" x="75" y="-453.9" font-family="Arial" font-size="14.00" fill="#000000">updated_at </text>
<text text-anchor="start" x="148.9326" y="-453.9" font-family="Arial" font-size="14.00" fill="#666666">[timestamp]</text>
<polygon fill="none" stroke="#000000" points="68,-412.5 68,-442.5 258,-442.5 258,-412.5 68,-412.5"/>
<text text-anchor="start" x="75" y="-423.9" font-family="Arial" font-size="14.00" fill="#000000">deleted_at </text>
<text text-anchor="start" x="144.2566" y="-423.9" font-family="Arial" font-size="14.00" fill="#666666">[timestamp]</text>
<polygon fill="none" stroke="#000000" stroke-width="3" points="66.5,-411.5 66.5,-749.5 259.5,-749.5 259.5,-411.5 66.5,-411.5"/>
</g>
<!-- users -->
<g id="node3" class="node">
<title>users</title>
<polygon fill="#efefef" stroke="transparent" points="48,-252.5 48,-287.5 278,-287.5 278,-252.5 48,-252.5"/>
<polygon fill="none" stroke="#000000" points="48,-252.5 48,-287.5 278,-287.5 278,-252.5 48,-252.5"/>
<text text-anchor="start" x="77.2137" y="-265.3" font-family="Arial Bold" font-size="18.00" fill="#000000">users</text>
<text text-anchor="start" x="121.2183" y="-265.3" font-family="Arial" font-size="14.00" fill="#000000">    </text>
<text text-anchor="start" x="155.4231" y="-265.3" font-family="Arial" font-size="14.00" fill="#666666">[BASE TABLE]</text>
<polygon fill="none" stroke="#000000" points="48,-222.5 48,-252.5 278,-252.5 278,-222.5 48,-222.5"/>
<text text-anchor="start" x="55" y="-233.9" font-family="Arial" font-size="14.00" fill="#000000">id    </text>
<text text-anchor="start" x="100.094" y="-233.9" font-family="Arial" font-size="14.00" fill="#666666">[bigint(20) unsigned]</text>
<polygon fill="none" stroke="#000000" points="48,-192.5 48,-222.5 278,-222.5 278,-192.5 48,-192.5"/>
<text text-anchor="start" x="55" y="-203.9" font-family="Arial" font-size="14.00" fill="#000000">username    </text>
<text text-anchor="start" x="151.439" y="-203.9" font-family="Arial" font-size="14.00" fill="#666666">[varchar(20)]</text>
<polygon fill="none" stroke="#000000" points="48,-162.5 48,-192.5 278,-192.5 278,-162.5 48,-162.5"/>
<text text-anchor="start" x="55" y="-173.9" font-family="Arial" font-size="14.00" fill="#000000">password    </text>
<text text-anchor="start" x="149.1024" y="-173.9" font-family="Arial" font-size="14.00" fill="#666666">[varchar(72)]</text>
<polygon fill="none" stroke="#000000" points="48,-132.5 48,-162.5 278,-162.5 278,-132.5 48,-132.5"/>
<text text-anchor="start" x="54.8738" y="-143.9" font-family="Arial" font-size="14.00" fill="#000000">last_logged_in_at    </text>
<text text-anchor="start" x="198.7882" y="-143.9" font-family="Arial" font-size="14.00" fill="#666666">[timestamp]</text>
<polygon fill="none" stroke="#000000" points="48,-102.5 48,-132.5 278,-132.5 278,-102.5 48,-102.5"/>
<text text-anchor="start" x="55" y="-113.9" font-family="Arial" font-size="14.00" fill="#000000">created_at    </text>
<text text-anchor="start" x="155.3422" y="-113.9" font-family="Arial" font-size="14.00" fill="#666666">[timestamp]</text>
<polygon fill="none" stroke="#000000" points="48,-72.5 48,-102.5 278,-102.5 278,-72.5 48,-72.5"/>
<text text-anchor="start" x="55" y="-83.9" font-family="Arial" font-size="14.00" fill="#000000">updated_at    </text>
<text text-anchor="start" x="159.2468" y="-83.9" font-family="Arial" font-size="14.00" fill="#666666">[timestamp]</text>
<polygon fill="none" stroke="#000000" points="48,-42.5 48,-72.5 278,-72.5 278,-42.5 48,-42.5"/>
<text text-anchor="start" x="55" y="-53.9" font-family="Arial" font-size="14.00" fill="#000000">deleted_at    </text>
<text text-anchor="start" x="154.5708" y="-53.9" font-family="Arial" font-size="14.00" fill="#666666">[timestamp]</text>
</g>
<!-- tasks&#45;&gt;users -->
<g id="edge2" class="edge">
<title>tasks:user_id&#45;&gt;users:id</title>
<path fill="none" stroke="#000000" d="M268.2876,-546.9106C396.9779,-531.9577 412.5587,-237.5 278,-237.5"/>
<polygon fill="#000000" stroke="#000000" points="267.9836,-546.9279 257.7426,-543.0074 262.9918,-547.214 258,-547.5 258,-547.5 258,-547.5 262.9918,-547.214 258.2574,-551.9926 267.9836,-546.9279 267.9836,-546.9279"/>
<text text-anchor="start" x="264.945" y="-557.5" font-family="Arial" font-size="10.00" fill="#000000">FOREIGN KEY (user_id) REFERENCES users (id)</text>
</g>
<!-- tasks_labels -->
<g id="node2" class="node">
<title>tasks_labels</title>
<polygon fill="#efefef" stroke="transparent" points="43,-992.5 43,-1027.5 283,-1027.5 283,-992.5 43,-992.5"/>
<polygon fill="none" stroke="#000000" points="43,-992.5 43,-1027.5 283,-1027.5 283,-992.5 43,-992.5"/>
<text text-anchor="start" x="49.7052" y="-1005.3" font-family="Arial Bold" font-size="18.00" fill="#000000">tasks_labels</text>
<text text-anchor="start" x="148.7268" y="-1005.3" font-family="Arial" font-size="14.00" fill="#000000">    </text>
<text text-anchor="start" x="182.9316" y="-1005.3" font-family="Arial" font-size="14.00" fill="#666666">[BASE TABLE]</text>
<polygon fill="none" stroke="#000000" points="43,-962.5 43,-992.5 283,-992.5 283,-962.5 43,-962.5"/>
<text text-anchor="start" x="50" y="-973.9" font-family="Arial" font-size="14.00" fill="#000000">id    </text>
<text text-anchor="start" x="95.094" y="-973.9" font-family="Arial" font-size="14.00" fill="#666666">[bigint(20) unsigned]</text>
<polygon fill="none" stroke="#000000" points="43,-932.5 43,-962.5 283,-962.5 283,-932.5 43,-932.5"/>
<text text-anchor="start" x="50" y="-943.9" font-family="Arial" font-size="14.00" fill="#000000">task_id    </text>
<text text-anchor="start" x="128.5498" y="-943.9" font-family="Arial" font-size="14.00" fill="#666666">[bigint(20) unsigned]</text>
<polygon fill="none" stroke="#000000" points="43,-902.5 43,-932.5 283,-932.5 283,-902.5 43,-902.5"/>
<text text-anchor="start" x="50" y="-913.9" font-family="Arial" font-size="14.00" fill="#000000">label_id    </text>
<text text-anchor="start" x="132.4376" y="-913.9" font-family="Arial" font-size="14.00" fill="#666666">[bigint(20) unsigned]</text>
<polygon fill="none" stroke="#000000" points="43,-872.5 43,-902.5 283,-902.5 283,-872.5 43,-872.5"/>
<text text-anchor="start" x="50" y="-883.9" font-family="Arial" font-size="14.00" fill="#000000">created_at    </text>
<text text-anchor="start" x="150.3422" y="-883.9" font-family="Arial" font-size="14.00" fill="#666666">[timestamp]</text>
</g>
<!-- tasks_labels&#45;&gt;tasks -->
<g id="edge1" class="edge">
<title>tasks_labels:task_id&#45;&gt;tasks:id</title>
<path fill="none" stroke="#000000" d="M293.0698,-946.7828C393.0182,-932.1191 366.1757,-697.5 258,-697.5"/>
<polygon fill="#000000" stroke="#000000" points="292.9747,-946.7895 282.6803,-943.0114 287.9874,-947.1448 283,-947.5 283,-947.5 283,-947.5 287.9874,-947.1448 283.3197,-951.9886 292.9747,-946.7895 292.9747,-946.7895"/>
<text text-anchor="start" x="290.054" y="-957.5" font-family="Arial" font-size="10.00" fill="#000000">FOREIGN KEY (task_id) REFERENCES tasks (id)</text>
</g>
</g>
</svg>
