<?xml version="1.0" encoding="UTF-8" standalone="no"?>
<!DOCTYPE svg PUBLIC "-//W3C//DTD SVG 1.1//EN"
 "http://www.w3.org/Graphics/SVG/1.1/DTD/svg11.dtd">
<!-- Generated by graphviz version 2.40.1 (20161225.0304)
 -->
<!-- Title: tasks_labels Pages: 1 -->
<svg width="728pt" height="712pt"
 viewBox="0.00 0.00 728.00 712.00" xmlns="http://www.w3.org/2000/svg" xmlns:xlink="http://www.w3.org/1999/xlink">
<g id="graph0" class="graph" transform="scale(1 1) rotate(0) translate(4 708)">
<title>tasks_labels</title>
<polygon fill="#ffffff" stroke="transparent" points="-4,4 -4,-708 724,-708 724,4 -4,4"/>
<!-- tasks_labels -->
<g id="node1" class="node">
<title>tasks_labels</title>
<polygon fill="#efefef" stroke="transparent" points="237,-622.5 237,-657.5 477,-657.5 477,-622.5 237,-622.5"/>
<polygon fill="none" stroke="#000000" points="237,-622.5 237,-657.5 477,-657.5 477,-622.5 237,-622.5"/>
<text text-anchor="start" x="243.7052" y="-635.3" font-family="Arial Bold" font-size="18.00" fill="#000000">tasks_labels</text>
<text text-anchor="start" x="342.7268" y="-635.3" font-family="Arial" font-size="14.00" fill="#000000">    </text>
<text text-anchor="start" x="376.9316" y="-635.3" font-family="Arial" font-size="14.00" fill="#666666">[BASE TABLE]</text>
<polygon fill="none" stroke="#000000" points="237,-592.5 237,-622.5 477,-622.5 477,-592.5 237,-592.5"/>
<text text-anchor="start" x="244" y="-603.9" font-family="Arial" font-size="14.00" fill="#000000">id </text>
<text text-anchor="start" x="258.7798" y="-603.9" font-family="Arial" font-size="14.00" fill="#666666">[bigint(20) unsigned]</text>
<polygon fill="none" stroke="#000000" points="237,-562.5 237,-592.5 477,-592.5 477,-562.5 237,-562.5"/>
<text text-anchor="start" x="244" y="-573.9" font-family="Arial" font-size="14.00" fill="#000000">task_id </text>
<text text-anchor="start" x="292.2356" y="-573.9" font-family="Arial" font-size="14.00" fill="#666666">[bigint(20) unsigned]</text>
<polygon fill="none" stroke="#000000" points="237,-532.5 237,-562.5 477,-562.5 477,-532.5 237,-532.5"/>
<text text-anchor="start" x="244" y="-543.9" font-family="Arial" font-size="14.00" fill="#000000">label_id </text>
<text text-anchor="start" x="296.1234" y="-543.9" font-family="Arial" font-size="14.00" fill="#666666">[bigint(20) unsigned]</text>
<polygon fill="none" stroke="#000000" points="237,-502.5 237,-532.5 477,-532.5 477,-502.5 237,-502.5"/>
<text text-anchor="start" x="244" y="-513.9" font-family="Arial" font-size="14.00" fill="#000000">created_at </text>
<text text-anchor="start" x="314.028" y="-513.9" font-family="Arial" font-size="14.00" fill="#666666">[timestamp]</text>
<polygon fill="none" stroke="#000000" stroke-width="3" points="235.5,-501.5 235.5,-659.5 478.5,-659.5 478.5,-501.5 235.5,-501.5"/>
</g>
<!-- tasks -->
<g id="node2" class="node">
<title>tasks</title>
<polygon fill="#efefef" stroke="transparent" points="93,-342.5 93,-377.5 313,-377.5 313,-342.5 93,-342.5"/>
<polygon fill="none" stroke="#000000" points="93,-342.5 93,-377.5 313,-377.5 313,-342.5 93,-342.5"/>
<text text-anchor="start" x="118.2118" y="-355.3" font-family="Arial Bold" font-size="18.00" fill="#000000">tasks</text>
<text text-anchor="start" x="160.2202" y="-355.3" font-family="Arial" font-size="14.00" fill="#000000">    </text>
<text text-anchor="start" x="194.425" y="-355.3" font-family="Arial" font-size="14.00" fill="#666666">[BASE TABLE]</text>
<polygon fill="none" stroke="#000000" points="93,-312.5 93,-342.5 313,-342.5 313,-312.5 93,-312.5"/>
<text text-anchor="start" x="100" y="-323.9" font-family="Arial" font-size="14.00" fill="#000000">id    </text>
<text text-anchor="start" x="145.094" y="-323.9" font-family="Arial" font-size="14.00" fill="#666666">[bigint(20) unsigned]</text>
<polygon fill="none" stroke="#000000" points="93,-282.5 93,-312.5 313,-312.5 313,-282.5 93,-282.5"/>
<text text-anchor="start" x="100" y="-293.9" font-family="Arial" font-size="14.00" fill="#000000">name    </text>
<text text-anchor="start" x="169.2132" y="-293.9" font-family="Arial" font-size="14.00" fill="#666666">[varchar(50)]</text>
<polygon fill="none" stroke="#000000" points="93,-252.5 93,-282.5 313,-282.5 313,-252.5 93,-252.5"/>
<text text-anchor="start" x="100" y="-263.9" font-family="Arial" font-size="14.00" fill="#000000">description    </text>
<text text-anchor="start" x="201.8822" y="-263.9" font-family="Arial" font-size="14.00" fill="#666666">[varchar(500)]</text>
<polygon fill="none" stroke="#000000" points="93,-222.5 93,-252.5 313,-252.5 313,-222.5 93,-222.5"/>
<text text-anchor="start" x="100" y="-233.9" font-family="Arial" font-size="14.00" fill="#000000">status    </text>
<text text-anchor="start" x="171.5512" y="-233.9" font-family="Arial" font-size="14.00" fill="#666666">[tinyint(3) unsigned]</text>
<polygon fill="none" stroke="#000000" points="93,-192.5 93,-222.5 313,-222.5 313,-192.5 93,-192.5"/>
<text text-anchor="start" x="100" y="-203.9" font-family="Arial" font-size="14.00" fill="#000000">priority    </text>
<text text-anchor="start" x="176.195" y="-203.9" font-family="Arial" font-size="14.00" fill="#666666">[tinyint(3) unsigned]</text>
<polygon fill="none" stroke="#000000" points="93,-162.5 93,-192.5 313,-192.5 313,-162.5 93,-162.5"/>
<text text-anchor="start" x="99.5428" y="-173.9" font-family="Arial" font-size="14.00" fill="#000000">user_id    </text>
<text text-anchor="start" x="179.6452" y="-173.9" font-family="Arial" font-size="14.00" fill="#666666">[bigint(20) unsigned]</text>
<polygon fill="none" stroke="#000000" points="93,-132.5 93,-162.5 313,-162.5 313,-132.5 93,-132.5"/>
<text text-anchor="start" x="100" y="-143.9" font-family="Arial" font-size="14.00" fill="#000000">due_date_at    </text>
<text text-anchor="start" x="212.0294" y="-143.9" font-family="Arial" font-size="14.00" fill="#666666">[timestamp]</text>
<polygon fill="none" stroke="#000000" points="93,-102.5 93,-132.5 313,-132.5 313,-102.5 93,-102.5"/>
<text text-anchor="start" x="100" y="-113.9" font-family="Arial" font-size="14.00" fill="#000000">created_at    </text>
<text text-anchor="start" x="200.3422" y="-113.9" font-family="Arial" font-size="14.00" fill="#666666">[timestamp]</text>
<polygon fill="none" stroke="#000000" points="93,-72.5 93,-102.5 313,-102.5 313,-72.5 93,-72.5"/>
<text text-anchor="start" x="100" y="-83.9" font-family="Arial" font-size="14.00" fill="#000000">updated_at    </text>
<text text-anchor="start" x="204.2468" y="-83.9" font-family="Arial" font-size="14.00" fill="#666666">[timestamp]</text>
<polygon fill="none" stroke="#000000" points="93,-42.5 93,-72.5 313,-72.5 313,-42.5 93,-42.5"/>
<text text-anchor="start" x="100" y="-53.9" font-family="Arial" font-size="14.00" fill="#000000">deleted_at    </text>
<text text-anchor="start" x="199.5708" y="-53.9" font-family="Arial" font-size="14.00" fill="#666666">[timestamp]</text>
</g>
<!-- tasks_labels&#45;&gt;tasks -->
<g id="edge1" class="edge">
<title>tasks_labels:task_id&#45;&gt;tasks:id</title>
<path fill="none" stroke="#000000" d="M226.841,-576.4206C186.9668,-567.0669 210.3749,-499.073 237,-457 256.9866,-425.4172 293.0134,-452.5828 313,-421 335.2218,-385.8851 354.5556,-327.5 313,-327.5"/>
<polygon fill="#000000" stroke="#000000" points="227.056,-576.4433 236.5245,-581.9748 232.028,-576.9717 237,-577.5 237,-577.5 237,-577.5 232.028,-576.9717 237.4755,-573.0252 227.056,-576.4433 227.056,-576.4433"/>
<text text-anchor="start" x="7.054" y="-587.5" font-family="Arial" font-size="10.00" fill="#000000">FOREIGN KEY (task_id) REFERENCES tasks (id)</text>
</g>
<!-- labels -->
<g id="node3" class="node">
<title>labels</title>
<polygon fill="#efefef" stroke="transparent" points="417,-237.5 417,-272.5 605,-272.5 605,-237.5 417,-237.5"/>
<polygon fill="none" stroke="#000000" points="417,-237.5 417,-272.5 605,-272.5 605,-237.5 417,-237.5"/>
<text text-anchor="start" x="423.7125" y="-250.3" font-family="Arial Bold" font-size="18.00" fill="#000000">labels</text>
<text text-anchor="start" x="470.7195" y="-250.3" font-family="Arial" font-size="14.00" fill="#000000">    </text>
<text text-anchor="start" x="504.9243" y="-250.3" font-family="Arial" font-size="14.00" fill="#666666">[BASE TABLE]</text>
<polygon fill="none" stroke="#000000" points="417,-207.5 417,-237.5 605,-237.5 605,-207.5 417,-207.5"/>
<text text-anchor="start" x="424" y="-218.9" font-family="Arial" font-size="14.00" fill="#000000">id    </text>
<text text-anchor="start" x="469.094" y="-218.9" font-family="Arial" font-size="14.00" fill="#666666">[bigint(20) unsigned]</text>
<polygon fill="none" stroke="#000000" points="417,-177.5 417,-207.5 605,-207.5 605,-177.5 417,-177.5"/>
<text text-anchor="start" x="424" y="-188.9" font-family="Arial" font-size="14.00" fill="#000000">name    </text>
<text text-anchor="start" x="493.2132" y="-188.9" font-family="Arial" font-size="14.00" fill="#666666">[varchar(20)]</text>
<polygon fill="none" stroke="#000000" points="417,-147.5 417,-177.5 605,-177.5 605,-147.5 417,-147.5"/>
<text text-anchor="start" x="424" y="-158.9" font-family="Arial" font-size="14.00" fill="#000000">created_at    </text>
<text text-anchor="start" x="524.3422" y="-158.9" font-family="Arial" font-size="14.00" fill="#666666">[timestamp]</text>
</g>
<!-- tasks_labels&#45;&gt;labels -->
<g id="edge2" class="edge">
<title>tasks_labels:label_id&#45;&gt;labels:id</title>
<path fill="none" stroke="#000000" d="M487.2366,-546.8821C606.2432,-531.2056 273.8442,-222.5 417,-222.5"/>
<polygon fill="#000000" stroke="#000000" points="486.9818,-546.8974 476.7288,-543.0082 481.9909,-547.1987 477,-547.5 477,-547.5 477,-547.5 481.9909,-547.1987 477.2712,-551.9918 486.9818,-546.8974 486.9818,-546.8974"/>
<text text-anchor="start" x="484.277" y="-557.5" font-family="Arial" font-size="10.00" fill="#000000">FOREIGN KEY (label_id) REFERENCES labels (id)</text>
</g>
</g>
</svg>
