<?xml version="1.0" encoding="UTF-8" standalone="no"?>
<!DOCTYPE svg PUBLIC "-//W3C//DTD SVG 1.1//EN"
 "http://www.w3.org/Graphics/SVG/1.1/DTD/svg11.dtd">
<!-- Generated by graphviz version 2.40.1 (20161225.0304)
 -->
<!-- Title: users Pages: 1 -->
<svg width="511pt" height="832pt"
 viewBox="0.00 0.00 511.00 832.00" xmlns="http://www.w3.org/2000/svg" xmlns:xlink="http://www.w3.org/1999/xlink">
<g id="graph0" class="graph" transform="scale(1 1) rotate(0) translate(4 828)">
<title>users</title>
<polygon fill="#ffffff" stroke="transparent" points="-4,4 -4,-828 507,-828 507,4 -4,4"/>
<!-- users -->
<g id="node1" class="node">
<title>users</title>
<polygon fill="#efefef" stroke="transparent" points="250,-285.5 250,-320.5 449,-320.5 449,-285.5 250,-285.5"/>
<polygon fill="none" stroke="#000000" points="250,-285.5 250,-320.5 449,-320.5 449,-285.5 250,-285.5"/>
<text text-anchor="start" x="263.7137" y="-298.3" font-family="Arial Bold" font-size="18.00" fill="#000000">users</text>
<text text-anchor="start" x="307.7183" y="-298.3" font-family="Arial" font-size="14.00" fill="#000000">    </text>
<text text-anchor="start" x="341.9231" y="-298.3" font-family="Arial" font-size="14.00" fill="#666666">[BASE TABLE]</text>
<polygon fill="none" stroke="#000000" points="250,-255.5 250,-285.5 449,-285.5 449,-255.5 250,-255.5"/>
<text text-anchor="start" x="257" y="-266.9" font-family="Arial" font-size="14.00" fill="#000000">id </text>
<text text-anchor="start" x="271.7798" y="-266.9" font-family="Arial" font-size="14.00" fill="#666666">[bigint(20) unsigned]</text>
<polygon fill="none" stroke="#000000" points="250,-225.5 250,-255.5 449,-255.5 449,-225.5 250,-225.5"/>
<text text-anchor="start" x="257" y="-236.9" font-family="Arial" font-size="14.00" fill="#000000">username </text>
<text text-anchor="start" x="323.1248" y="-236.9" font-family="Arial" font-size="14.00" fill="#666666">[varchar(20)]</text>
<polygon fill="none" stroke="#000000" points="250,-195.5 250,-225.5 449,-225.5 449,-195.5 250,-195.5"/>
<text text-anchor="start" x="257" y="-206.9" font-family="Arial" font-size="14.00" fill="#000000">password </text>
<text text-anchor="start" x="320.7882" y="-206.9" font-family="Arial" font-size="14.00" fill="#666666">[varchar(72)]</text>
<polygon fill="none" stroke="#000000" points="250,-165.5 250,-195.5 449,-195.5 449,-165.5 250,-165.5"/>
<text text-anchor="start" x="257" y="-176.9" font-family="Arial" font-size="14.00" fill="#000000">role </text>
<text text-anchor="start" x="284.223" y="-176.9" font-family="Arial" font-size="14.00" fill="#666666">[tinyint(3) unsigned]</text>
<polygon fill="none" stroke="#000000" points="250,-135.5 250,-165.5 449,-165.5 449,-135.5 250,-135.5"/>
<text text-anchor="start" x="256.5309" y="-146.9" font-family="Arial" font-size="14.00" fill="#000000">last_logged_in_at </text>
<text text-anchor="start" x="370.1311" y="-146.9" font-family="Arial" font-size="14.00" fill="#666666">[timestamp]</text>
<polygon fill="none" stroke="#000000" points="250,-105.5 250,-135.5 449,-135.5 449,-105.5 250,-105.5"/>
<text text-anchor="start" x="257" y="-116.9" font-family="Arial" font-size="14.00" fill="#000000">created_at </text>
<text text-anchor="start" x="327.028" y="-116.9" font-family="Arial" font-size="14.00" fill="#666666">[timestamp]</text>
<polygon fill="none" stroke="#000000" points="250,-75.5 250,-105.5 449,-105.5 449,-75.5 250,-75.5"/>
<text text-anchor="start" x="257" y="-86.9" font-family="Arial" font-size="14.00" fill="#000000">updated_at </text>
<text text-anchor="start" x="330.9326" y="-86.9" font-family="Arial" font-size="14.00" fill="#666666">[timestamp]</text>
<polygon fill="none" stroke="#000000" points="250,-45.5 250,-75.5 449,-75.5 449,-45.5 250,-45.5"/>
<text text-anchor="start" x="257" y="-56.9" font-family="Arial" font-size="14.00" fill="#000000">deleted_at </text>
<text text-anchor="start" x="326.2566" y="-56.9" font-family="Arial" font-size="14.00" fill="#666666">[timestamp]</text>
<polygon fill="none" stroke="#000000" stroke-width="3" points="248,-44.5 248,-322.5 450,-322.5 450,-44.5 248,-44.5"/>
</g>
<!-- tasks -->
<g id="node2" class="node">
<title>tasks</title>
<polygon fill="#efefef" stroke="transparent" points="240,-745.5 240,-780.5 460,-780.5 460,-745.5 240,-745.5"/>
<polygon fill="none" stroke="#000000" points="240,-745.5 240,-780.5 460,-780.5 460,-745.5 240,-745.5"/>
<text text-anchor="start" x="265.2118" y="-758.3" font-family="Arial Bold" font-size="18.00" fill="#000000">tasks</text>
<text text-anchor="start" x="307.2202" y="-758.3" font-family="Arial" font-size="14.00" fill="#000000">    </text>
<text text-anchor="start" x="341.425" y="-758.3" font-family="Arial" font-size="14.00" fill="#666666">[BASE TABLE]</text>
<polygon fill="none" stroke="#000000" points="240,-715.5 240,-745.5 460,-745.5 460,-715.5 240,-715.5"/>
<text text-anchor="start" x="247" y="-726.9" font-family="Arial" font-size="14.00" fill="#000000">id    </text>
<text text-anchor="start" x="292.094" y="-726.9" font-family="Arial" font-size="14.00" fill="#666666">[bigint(20) unsigned]</text>
<polygon fill="none" stroke="#000000" points="240,-685.5 240,-715.5 460,-715.5 460,-685.5 240,-685.5"/>
<text text-anchor="start" x="247" y="-696.9" font-family="Arial" font-size="14.00" fill="#000000">name    </text>
<text text-anchor="start" x="316.2132" y="-696.9" font-family="Arial" font-size="14.00" fill="#666666">[varchar(50)]</text>
<polygon fill="none" stroke="#000000" points="240,-655.5 240,-685.5 460,-685.5 460,-655.5 240,-655.5"/>
<text text-anchor="start" x="247" y="-666.9" font-family="Arial" font-size="14.00" fill="#000000">description    </text>
<text text-anchor="start" x="348.8822" y="-666.9" font-family="Arial" font-size="14.00" fill="#666666">[varchar(500)]</text>
<polygon fill="none" stroke="#000000" points="240,-625.5 240,-655.5 460,-655.5 460,-625.5 240,-625.5"/>
<text text-anchor="start" x="247" y="-636.9" font-family="Arial" font-size="14.00" fill="#000000">status    </text>
<text text-anchor="start" x="318.5512" y="-636.9" font-family="Arial" font-size="14.00" fill="#666666">[tinyint(3) unsigned]</text>
<polygon fill="none" stroke="#000000" points="240,-595.5 240,-625.5 460,-625.5 460,-595.5 240,-595.5"/>
<text text-anchor="start" x="247" y="-606.9" font-family="Arial" font-size="14.00" fill="#000000">priority    </text>
<text text-anchor="start" x="323.195" y="-606.9" font-family="Arial" font-size="14.00" fill="#666666">[tinyint(3) unsigned]</text>
<polygon fill="none" stroke="#000000" points="240,-565.5 240,-595.5 460,-595.5 460,-565.5 240,-565.5"/>
<text text-anchor="start" x="246.5428" y="-576.9" font-family="Arial" font-size="14.00" fill="#000000">user_id    </text>
<text text-anchor="start" x="326.6452" y="-576.9" font-family="Arial" font-size="14.00" fill="#666666">[bigint(20) unsigned]</text>
<polygon fill="none" stroke="#000000" points="240,-535.5 240,-565.5 460,-565.5 460,-535.5 240,-535.5"/>
<text text-anchor="start" x="247" y="-546.9" font-family="Arial" font-size="14.00" fill="#000000">due_date_at    </text>
<text text-anchor="start" x="359.0294" y="-546.9" font-family="Arial" font-size="14.00" fill="#666666">[timestamp]</text>
<polygon fill="none" stroke="#000000" points="240,-505.5 240,-535.5 460,-535.5 460,-505.5 240,-505.5"/>
<text text-anchor="start" x="247" y="-516.9" font-family="Arial" font-size="14.00" fill="#000000">created_at    </text>
<text text-anchor="start" x="347.3422" y="-516.9" font-family="Arial" font-size="14.00" fill="#666666">[timestamp]</text>
<polygon fill="none" stroke="#000000" points="240,-475.5 240,-505.5 460,-505.5 460,-475.5 240,-475.5"/>
<text text-anchor="start" x="247" y="-486.9" font-family="Arial" font-size="14.00" fill="#000000">updated_at    </text>
<text text-anchor="start" x="351.2468" y="-486.9" font-family="Arial" font-size="14.00" fill="#666666">[timestamp]</text>
<polygon fill="none" stroke="#000000" points="240,-445.5 240,-475.5 460,-475.5 460,-445.5 240,-445.5"/>
<text text-anchor="start" x="247" y="-456.9" font-family="Arial" font-size="14.00" fill="#000000">deleted_at    </text>
<text text-anchor="start" x="346.5708" y="-456.9" font-family="Arial" font-size="14.00" fill="#666666">[timestamp]</text>
</g>
<!-- tasks&#45;&gt;users -->
<g id="edge1" class="edge">
<title>tasks:user_id&#45;&gt;users:id</title>
<path fill="none" stroke="#000000" d="M230.0083,-579.8064C163.6781,-570.0879 191.455,-460.6217 240,-403 300.7299,-330.9151 388.2701,-439.0849 449,-367 476.6334,-334.1998 491.8889,-270.5 449,-270.5"/>
<polygon fill="#000000" stroke="#000000" points="230.024,-579.8074 239.6883,-584.9892 235.012,-580.1537 240,-580.5 240,-580.5 240,-580.5 235.012,-580.1537 240.3117,-576.0108 230.024,-579.8074 230.024,-579.8074"/>
<text text-anchor="start" x="6.945" y="-590.5" font-family="Arial" font-size="10.00" fill="#000000">FOREIGN KEY (user_id) REFERENCES users (id)</text>
</g>
</g>
</svg>
